# xmcd
#
# Track frame offsets:
#	150
#	20683
#	35583
#	59892
#	75433
#	98863
#	122599
#	141417
#	157113
#	176775
#	193790
#
# Disc length: 2922 seconds
#
# Revision: 4
# Processed by: cddbd v1.5.2PL0 Copyright (c) Steve Scherf et al.
# Submitted via: audiograbber 1.83.01
#
DISCID=a00b680b
DTITLE=Heather Eatman - Mascara Falls
DYEAR=1995
DGENRE=Rock
TTITLE0=Goodbye Betty-Jean
TTITLE1=Barbs
TTITLE2=Miss Liberty
TTITLE3=City of Your Heart
TTITLE4=Halfway Hotel
TTITLE5=The Amelia Earhart Waltz
TTITLE6=Lucky You
TTITLE7=Sheila
TTITLE8=Big Bass Drum
TTITLE9=Used Car
TTITLE10=Greyhound
EXTD=
EXTT0=
EXTT1=
EXTT2=
EXTT3=
EXTT4=
EXTT5=
EXTT6=
EXTT7=
EXTT8=
EXTT9=
EXTT10=
PLAYORDER=
